<svg width="24" height="24" viewBox="0 0 24 24" fill="none" xmlns="http://www.w3.org/2000/svg">
<path d="M15.4899 20.7614C15.2999 20.7614 15.1099 20.6914 14.9599 20.5414C14.6699 20.2514 14.6699 19.7714 14.9599 19.4814L19.9699 14.4714C20.2599 14.1814 20.7399 14.1814 21.0299 14.4714C21.3199 14.7614 21.3199 15.2414 21.0299 15.5314L16.0199 20.5414C15.8699 20.6814 15.6799 20.7614 15.4899 20.7614Z" fill="#F7B733"/>
<path d="M20.5 15.7383H3.5C3.09 15.7383 2.75 15.3983 2.75 14.9883C2.75 14.5783 3.09 14.2383 3.5 14.2383H20.5C20.91 14.2383 21.25 14.5783 21.25 14.9883C21.25 15.3983 20.91 15.7383 20.5 15.7383Z" fill="#F7B733"/>
<path d="M3.49994 9.76141C3.30994 9.76141 3.11994 9.69141 2.96994 9.54141C2.67994 9.25141 2.67994 8.77141 2.96994 8.48141L7.97994 3.47141C8.26994 3.18141 8.74994 3.18141 9.03994 3.47141C9.32994 3.76141 9.32994 4.24141 9.03994 4.53141L4.02994 9.54141C3.88994 9.68141 3.68994 9.76141 3.49994 9.76141Z" fill="#F7B733"/>
<path d="M20.5 9.76172H3.5C3.09 9.76172 2.75 9.42172 2.75 9.01172C2.75 8.60172 3.09 8.26172 3.5 8.26172H20.5C20.91 8.26172 21.25 8.60172 21.25 9.01172C21.25 9.42172 20.91 9.76172 20.5 9.76172Z" fill="#F7B733"/>
</svg>
