<svg width="16" height="16" viewBox="0 0 16 16" fill="none" xmlns="http://www.w3.org/2000/svg">
<path d="M10.6667 15.1678H5.33334C2.25334 15.1678 1.68 13.7345 1.53334 12.3411L1.03334 7.00115C0.960004 6.30115 0.940004 5.26781 1.63334 4.49448C2.23334 3.82781 3.22667 3.50781 4.66667 3.50781H11.3333C12.78 3.50781 13.7733 3.83448 14.3667 4.49448C15.06 5.26781 15.04 6.30115 14.9667 7.00781L14.4667 12.3345C14.32 13.7345 13.7467 15.1678 10.6667 15.1678ZM4.66667 4.50115C3.54 4.50115 2.76667 4.72115 2.37334 5.16115C2.04667 5.52115 1.94 6.07448 2.02667 6.90115L2.52667 12.2411C2.64 13.2945 2.92667 14.1678 5.33334 14.1678H10.6667C13.0667 14.1678 13.36 13.2945 13.4733 12.2345L13.9733 6.90781C14.06 6.07448 13.9533 5.52115 13.6267 5.16115C13.2333 4.72115 12.46 4.50115 11.3333 4.50115H4.66667Z" fill="#CBD5E1"/>
<path d="M10.6667 4.4987C10.3933 4.4987 10.1667 4.27203 10.1667 3.9987V3.46536C10.1667 2.2787 10.1667 1.83203 8.53333 1.83203H7.46666C5.83333 1.83203 5.83333 2.2787 5.83333 3.46536V3.9987C5.83333 4.27203 5.60666 4.4987 5.33333 4.4987C5.05999 4.4987 4.83333 4.27203 4.83333 3.9987V3.46536C4.83333 2.29203 4.83333 0.832031 7.46666 0.832031H8.53333C11.1667 0.832031 11.1667 2.29203 11.1667 3.46536V3.9987C11.1667 4.27203 10.94 4.4987 10.6667 4.4987Z" fill="#CBD5E1"/>
<path d="M8.00001 11.1667C6.16667 11.1667 6.16667 10.0333 6.16667 9.35333V8.66667C6.16667 7.72667 6.39334 7.5 7.33334 7.5H8.66667C9.60667 7.5 9.83334 7.72667 9.83334 8.66667V9.33333C9.83334 10.0267 9.83334 11.1667 8.00001 11.1667ZM7.16667 8.5C7.16667 8.55333 7.16667 8.61333 7.16667 8.66667V9.35333C7.16667 10.04 7.16667 10.1667 8.00001 10.1667C8.83334 10.1667 8.83334 10.06 8.83334 9.34667V8.66667C8.83334 8.61333 8.83334 8.55333 8.83334 8.5C8.78 8.5 8.72001 8.5 8.66667 8.5H7.33334C7.28 8.5 7.22001 8.5 7.16667 8.5Z" fill="#CBD5E1"/>
<path d="M9.33334 9.84552C9.08668 9.84552 8.86668 9.65886 8.84001 9.40552C8.80668 9.13219 9.00001 8.87886 9.27334 8.84552C11.0333 8.62552 12.72 7.95886 14.14 6.92552C14.36 6.75886 14.6733 6.81219 14.84 7.03886C15 7.25886 14.9533 7.57219 14.7267 7.73886C13.1667 8.87219 11.3267 9.59886 9.39334 9.84552C9.37334 9.84552 9.35334 9.84552 9.33334 9.84552Z" fill="#CBD5E1"/>
<path d="M6.66666 9.85392C6.64666 9.85392 6.62666 9.85392 6.60666 9.85392C4.77999 9.64725 2.99999 8.98059 1.45999 7.92725C1.23333 7.77392 1.17333 7.46059 1.32666 7.23392C1.47999 7.00725 1.79333 6.94725 2.01999 7.10059C3.42666 8.06059 5.04666 8.66725 6.71333 8.86059C6.98666 8.89392 7.18666 9.14059 7.15333 9.41392C7.13333 9.66725 6.91999 9.85392 6.66666 9.85392Z" fill="#CBD5E1"/>
</svg>
