<svg width="16" height="16" viewBox="0 0 16 16" fill="none" xmlns="http://www.w3.org/2000/svg">
<path d="M8.33334 15.1684H2.72001C1.67334 15.1684 0.813339 14.3284 0.813339 13.2884V3.39509C0.813339 2.37509 1.19334 1.58175 1.88667 1.14842C2.58667 0.708419 3.49334 0.721752 4.43334 1.18842L7.39334 2.64175C8.20001 3.04175 8.83334 4.04842 8.83334 4.94175V14.6684C8.83334 14.9418 8.60667 15.1684 8.33334 15.1684ZM3.04001 1.83509C2.80667 1.83509 2.59334 1.88842 2.41334 2.00175C2.02667 2.24175 1.81334 2.74175 1.81334 3.39509V13.2884C1.81334 13.7751 2.22001 14.1684 2.72001 14.1684H7.83334V4.94175C7.83334 4.42842 7.42001 3.76842 6.94667 3.54175L3.98667 2.08842C3.64667 1.92175 3.32667 1.83509 3.04001 1.83509Z" fill="#CBD5E1"/>
<path d="M12.54 15.1675H8.33334C8.06001 15.1675 7.83334 14.9408 7.83334 14.6675V6.9475C7.83334 6.79416 7.90001 6.65416 8.02001 6.56083C8.14001 6.4675 8.28668 6.4275 8.44001 6.46083L8.75334 6.5275L13.1133 7.50083C14.44 7.79416 15.1067 8.57416 15.1467 9.90083C15.1533 9.90083 15.1533 9.9675 15.1533 10.0408V12.5608C15.1467 14.2675 14.2467 15.1675 12.54 15.1675ZM8.83334 14.1675H12.54C13.7133 14.1675 14.1467 13.7342 14.1467 12.5608V9.9875C14.1133 9.07416 13.7667 8.6675 12.8933 8.47416L8.83334 7.5675V14.1675Z" fill="#CBD5E1"/>
<path d="M5.98001 6.5H3.66667C3.39334 6.5 3.16667 6.27333 3.16667 6C3.16667 5.72667 3.39334 5.5 3.66667 5.5H5.98001C6.25334 5.5 6.48001 5.72667 6.48001 6C6.48001 6.27333 6.26 6.5 5.98001 6.5Z" fill="#CBD5E1"/>
<path d="M5.98001 9.16797H3.66667C3.39334 9.16797 3.16667 8.9413 3.16667 8.66797C3.16667 8.39464 3.39334 8.16797 3.66667 8.16797H5.98001C6.25334 8.16797 6.48001 8.39464 6.48001 8.66797C6.48001 8.9413 6.26 9.16797 5.98001 9.16797Z" fill="#CBD5E1"/>
<path d="M10.1467 11.8336C9.04667 11.8336 8.14667 10.9336 8.14667 9.83365V7.01365C8.14667 6.86031 8.21333 6.72031 8.33333 6.62031C8.45333 6.52031 8.60667 6.48698 8.75333 6.52031L11.7533 7.19365C11.98 7.24698 12.1467 7.44698 12.1467 7.68031V9.82698C12.1467 10.9336 11.2533 11.8336 10.1467 11.8336ZM9.14667 7.64031V9.83365C9.14667 10.387 9.59333 10.8336 10.1467 10.8336C10.7 10.8336 11.1467 10.387 11.1467 9.83365V8.08698L9.14667 7.64031Z" fill="#CBD5E1"/>
<path d="M13.1467 11.8324C12.0467 11.8324 11.1467 10.9324 11.1467 9.83244V7.68578C11.1467 7.53244 11.2133 7.39244 11.3333 7.29911C11.4533 7.20578 11.6067 7.16578 11.7533 7.19911L13.1067 7.49911C14.4333 7.79244 15.1 8.57244 15.14 9.89911C15.14 9.91244 15.14 9.92578 15.14 9.93911C15.0867 10.9991 14.2133 11.8324 13.1467 11.8324ZM12.1467 8.30578V9.83244C12.1467 10.3858 12.5933 10.8324 13.1467 10.8324C13.6733 10.8324 14.1067 10.4258 14.14 9.90578C14.1067 9.06578 13.76 8.66578 12.8933 8.47244L12.1467 8.30578Z" fill="#CBD5E1"/>
</svg>
