<svg width="16" height="16" viewBox="0 0 16 16" fill="none" xmlns="http://www.w3.org/2000/svg">
<path d="M5.33333 3.83203C5.05999 3.83203 4.83333 3.60536 4.83333 3.33203V1.33203C4.83333 1.0587 5.05999 0.832031 5.33333 0.832031C5.60666 0.832031 5.83333 1.0587 5.83333 1.33203V3.33203C5.83333 3.60536 5.60666 3.83203 5.33333 3.83203Z" fill="#CBD5E1"/>
<path d="M10.6667 3.83203C10.3933 3.83203 10.1667 3.60536 10.1667 3.33203V1.33203C10.1667 1.0587 10.3933 0.832031 10.6667 0.832031C10.94 0.832031 11.1667 1.0587 11.1667 1.33203V3.33203C11.1667 3.60536 10.94 3.83203 10.6667 3.83203Z" fill="#CBD5E1"/>
<path d="M5.66667 9.66557C5.58 9.66557 5.49333 9.64558 5.41333 9.61225C5.32667 9.57891 5.26 9.53223 5.19333 9.47223C5.07333 9.34557 5 9.17891 5 8.99891C5 8.91224 5.02 8.82557 5.05333 8.74557C5.08667 8.66557 5.13333 8.59224 5.19333 8.52558C5.26 8.46558 5.32667 8.4189 5.41333 8.38556C5.65333 8.28556 5.95333 8.33891 6.14 8.52558C6.26 8.65224 6.33333 8.82557 6.33333 8.99891C6.33333 9.03891 6.32667 9.08558 6.32 9.13225C6.31333 9.17225 6.3 9.21224 6.28 9.25224C6.26667 9.29224 6.24667 9.33224 6.22 9.37224C6.2 9.40557 6.16667 9.4389 6.14 9.47223C6.01333 9.59223 5.84 9.66557 5.66667 9.66557Z" fill="#CBD5E1"/>
<path d="M8.00001 9.66854C7.91334 9.66854 7.82668 9.64854 7.74668 9.61521C7.66001 9.58188 7.59334 9.5352 7.52668 9.4752C7.40668 9.34853 7.33334 9.18187 7.33334 9.00187C7.33334 8.9152 7.35334 8.82853 7.38668 8.74853C7.42001 8.66853 7.46668 8.59521 7.52668 8.52854C7.59334 8.46854 7.66001 8.42186 7.74668 8.38853C7.98668 8.28186 8.28668 8.34187 8.47334 8.52854C8.59334 8.65521 8.66668 8.82854 8.66668 9.00187C8.66668 9.04187 8.66001 9.08854 8.65334 9.13521C8.64668 9.17521 8.63334 9.21521 8.61334 9.25521C8.60001 9.29521 8.58001 9.3352 8.55334 9.3752C8.53334 9.40853 8.50001 9.44186 8.47334 9.4752C8.34668 9.5952 8.17334 9.66854 8.00001 9.66854Z" fill="#CBD5E1"/>
<path d="M10.3333 9.66854C10.2467 9.66854 10.16 9.64854 10.08 9.61521C9.99332 9.58188 9.92666 9.5352 9.85999 9.4752C9.83332 9.44186 9.80666 9.40853 9.77999 9.3752C9.75332 9.3352 9.73332 9.29521 9.71999 9.25521C9.69999 9.21521 9.68666 9.17521 9.67999 9.13521C9.67332 9.08854 9.66666 9.04187 9.66666 9.00187C9.66666 8.82854 9.73999 8.65521 9.85999 8.52854C9.92666 8.46854 9.99332 8.42186 10.08 8.38853C10.3267 8.28186 10.62 8.34187 10.8067 8.52854C10.9267 8.65521 11 8.82854 11 9.00187C11 9.04187 10.9933 9.08854 10.9867 9.13521C10.98 9.17521 10.9667 9.21521 10.9467 9.25521C10.9333 9.29521 10.9133 9.3352 10.8867 9.3752C10.8667 9.40853 10.8333 9.44186 10.8067 9.4752C10.68 9.5952 10.5067 9.66854 10.3333 9.66854Z" fill="#CBD5E1"/>
<path d="M5.66667 12.0008C5.58 12.0008 5.49333 11.9808 5.41333 11.9475C5.33333 11.9141 5.26 11.8674 5.19333 11.8074C5.07333 11.6808 5 11.5074 5 11.3341C5 11.2474 5.02 11.1608 5.05333 11.0808C5.08667 10.9941 5.13333 10.9208 5.19333 10.8608C5.44 10.6141 5.89333 10.6141 6.14 10.8608C6.26 10.9874 6.33333 11.1608 6.33333 11.3341C6.33333 11.5074 6.26 11.6808 6.14 11.8074C6.01333 11.9274 5.84 12.0008 5.66667 12.0008Z" fill="#CBD5E1"/>
<path d="M8.00001 12.0008C7.82668 12.0008 7.65334 11.9274 7.52668 11.8074C7.40668 11.6808 7.33334 11.5074 7.33334 11.3341C7.33334 11.2474 7.35334 11.1608 7.38668 11.0808C7.42001 10.9941 7.46668 10.9208 7.52668 10.8608C7.77334 10.6141 8.22668 10.6141 8.47334 10.8608C8.53334 10.9208 8.58001 10.9941 8.61334 11.0808C8.64668 11.1608 8.66668 11.2474 8.66668 11.3341C8.66668 11.5074 8.59334 11.6808 8.47334 11.8074C8.34668 11.9274 8.17334 12.0008 8.00001 12.0008Z" fill="#CBD5E1"/>
<path d="M10.3333 12.0019C10.16 12.0019 9.98666 11.9286 9.85999 11.8086C9.79999 11.7486 9.75332 11.6752 9.71999 11.5886C9.68666 11.5086 9.66666 11.4219 9.66666 11.3352C9.66666 11.2486 9.68666 11.1619 9.71999 11.0819C9.75332 10.9952 9.79999 10.9219 9.85999 10.8619C10.0133 10.7086 10.2467 10.6352 10.46 10.6819C10.5067 10.6886 10.5467 10.7019 10.5867 10.7219C10.6267 10.7352 10.6667 10.7552 10.7067 10.7819C10.74 10.8019 10.7733 10.8352 10.8067 10.8619C10.9267 10.9886 11 11.1619 11 11.3352C11 11.5086 10.9267 11.6819 10.8067 11.8086C10.68 11.9286 10.5067 12.0019 10.3333 12.0019Z" fill="#CBD5E1"/>
<path d="M13.6667 6.55859H2.33333C2.05999 6.55859 1.83333 6.33193 1.83333 6.05859C1.83333 5.78526 2.05999 5.55859 2.33333 5.55859H13.6667C13.94 5.55859 14.1667 5.78526 14.1667 6.05859C14.1667 6.33193 13.94 6.55859 13.6667 6.55859Z" fill="#CBD5E1"/>
<path d="M10.6667 15.1654H5.33333C2.9 15.1654 1.5 13.7654 1.5 11.332V5.66536C1.5 3.23203 2.9 1.83203 5.33333 1.83203H10.6667C13.1 1.83203 14.5 3.23203 14.5 5.66536V11.332C14.5 13.7654 13.1 15.1654 10.6667 15.1654ZM5.33333 2.83203C3.42667 2.83203 2.5 3.7587 2.5 5.66536V11.332C2.5 13.2387 3.42667 14.1654 5.33333 14.1654H10.6667C12.5733 14.1654 13.5 13.2387 13.5 11.332V5.66536C13.5 3.7587 12.5733 2.83203 10.6667 2.83203H5.33333Z" fill="#CBD5E1"/>
</svg>
