<svg width="16" height="16" viewBox="0 0 16 16" fill="none" xmlns="http://www.w3.org/2000/svg">
<path d="M12.6667 7.16536H11.3333C9.72001 7.16536 8.83334 6.2787 8.83334 4.66536V3.33203C8.83334 1.7187 9.72001 0.832031 11.3333 0.832031H12.6667C14.28 0.832031 15.1667 1.7187 15.1667 3.33203V4.66536C15.1667 6.2787 14.28 7.16536 12.6667 7.16536ZM11.3333 1.83203C10.28 1.83203 9.83334 2.2787 9.83334 3.33203V4.66536C9.83334 5.7187 10.28 6.16536 11.3333 6.16536H12.6667C13.72 6.16536 14.1667 5.7187 14.1667 4.66536V3.33203C14.1667 2.2787 13.72 1.83203 12.6667 1.83203H11.3333Z" fill="#CBD5E1"/>
<path d="M4.66666 15.1654H3.33333C1.71999 15.1654 0.833328 14.2787 0.833328 12.6654V11.332C0.833328 9.7187 1.71999 8.83203 3.33333 8.83203H4.66666C6.27999 8.83203 7.16666 9.7187 7.16666 11.332V12.6654C7.16666 14.2787 6.27999 15.1654 4.66666 15.1654ZM3.33333 9.83203C2.27999 9.83203 1.83333 10.2787 1.83333 11.332V12.6654C1.83333 13.7187 2.27999 14.1654 3.33333 14.1654H4.66666C5.71999 14.1654 6.16666 13.7187 6.16666 12.6654V11.332C6.16666 10.2787 5.71999 9.83203 4.66666 9.83203H3.33333Z" fill="#CBD5E1"/>
<path d="M3.99999 7.16536C2.25333 7.16536 0.833328 5.74536 0.833328 3.9987C0.833328 2.25203 2.25333 0.832031 3.99999 0.832031C5.74666 0.832031 7.16666 2.25203 7.16666 3.9987C7.16666 5.74536 5.74666 7.16536 3.99999 7.16536ZM3.99999 1.83203C2.80666 1.83203 1.83333 2.80536 1.83333 3.9987C1.83333 5.19203 2.80666 6.16536 3.99999 6.16536C5.19333 6.16536 6.16666 5.19203 6.16666 3.9987C6.16666 2.80536 5.19333 1.83203 3.99999 1.83203Z" fill="#CBD5E1"/>
<path d="M12 15.1654C10.2533 15.1654 8.83334 13.7454 8.83334 11.9987C8.83334 10.252 10.2533 8.83203 12 8.83203C13.7467 8.83203 15.1667 10.252 15.1667 11.9987C15.1667 13.7454 13.7467 15.1654 12 15.1654ZM12 9.83203C10.8067 9.83203 9.83334 10.8054 9.83334 11.9987C9.83334 13.192 10.8067 14.1654 12 14.1654C13.1933 14.1654 14.1667 13.192 14.1667 11.9987C14.1667 10.8054 13.1933 9.83203 12 9.83203Z" fill="#CBD5E1"/>
</svg>
