<svg width="16" height="16" viewBox="0 0 16 16" fill="none" xmlns="http://www.w3.org/2000/svg">
<path d="M8 15.1654C4.04666 15.1654 0.833328 11.952 0.833328 7.9987C0.833328 4.04536 4.04666 0.832031 8 0.832031C11.9533 0.832031 15.1667 4.04536 15.1667 7.9987C15.1667 11.952 11.9533 15.1654 8 15.1654ZM8 1.83203C4.6 1.83203 1.83333 4.5987 1.83333 7.9987C1.83333 11.3987 4.6 14.1654 8 14.1654C11.4 14.1654 14.1667 11.3987 14.1667 7.9987C14.1667 4.5987 11.4 1.83203 8 1.83203Z" fill="#CBD5E1"/>
<path d="M6 14.5H5.33334C5.06 14.5 4.83334 14.2733 4.83334 14C4.83334 13.7267 5.04667 13.5067 5.32 13.5C4.27334 9.92667 4.27334 6.07333 5.32 2.5C5.04667 2.49333 4.83334 2.27333 4.83334 2C4.83334 1.72667 5.06 1.5 5.33334 1.5H6C6.16 1.5 6.31334 1.58 6.40667 1.70667C6.5 1.84 6.52667 2.00667 6.47334 2.16C5.22 5.92667 5.22 10.0733 6.47334 13.8467C6.52667 14 6.5 14.1667 6.40667 14.3C6.31334 14.42 6.16 14.5 6 14.5Z" fill="#CBD5E1"/>
<path d="M10 14.5017C9.94668 14.5017 9.89334 14.4951 9.84001 14.4751C9.58001 14.3884 9.43334 14.1017 9.52668 13.8417C10.78 10.0751 10.78 5.92841 9.52668 2.15508C9.44001 1.89508 9.58001 1.60841 9.84001 1.52175C10.1067 1.43508 10.3867 1.57508 10.4733 1.83508C11.8 5.80841 11.8 10.1817 10.4733 14.1484C10.4067 14.3684 10.2067 14.5017 10 14.5017Z" fill="#CBD5E1"/>
<path d="M8 11.4672C6.14 11.4672 4.28667 11.2072 2.5 10.6805C2.49333 10.9472 2.27333 11.1672 2 11.1672C1.72667 11.1672 1.5 10.9405 1.5 10.6672V10.0005C1.5 9.84052 1.58 9.68718 1.70667 9.59385C1.84 9.50052 2.00667 9.47385 2.16 9.52718C5.92667 10.7805 10.08 10.7805 13.8467 9.52718C14 9.47385 14.1667 9.50052 14.3 9.59385C14.4333 9.68718 14.5067 9.84052 14.5067 10.0005V10.6672C14.5067 10.9405 14.28 11.1672 14.0067 11.1672C13.7333 11.1672 13.5133 10.9538 13.5067 10.6805C11.7133 11.2072 9.86 11.4672 8 11.4672Z" fill="#CBD5E1"/>
<path d="M14 6.49958C13.9467 6.49958 13.8933 6.49292 13.84 6.47292C10.0733 5.21958 5.92 5.21958 2.15334 6.47292C1.88667 6.55958 1.60667 6.41958 1.52 6.15958C1.44 5.89292 1.58 5.61292 1.84 5.52625C5.81334 4.19958 10.1867 4.19958 14.1533 5.52625C14.4133 5.61292 14.56 5.89958 14.4667 6.15958C14.4067 6.36625 14.2067 6.49958 14 6.49958Z" fill="#CBD5E1"/>
</svg>
