<svg width="16" height="24" viewBox="0 0 16 24" fill="none" xmlns="http://www.w3.org/2000/svg">
<path d="M12.7325 18.9113V16.5H13.1975C14.438 16.5 15.4475 15.4905 15.4475 14.25V3C15.4475 1.7595 14.438 0.75 13.1975 0.75H2.80249C1.56199 0.75 0.55249 1.7595 0.55249 3V14.25C0.55249 15.4905 1.56199 16.5 2.80249 16.5H3.30424C3.05974 17.955 4.37599 19.9357 4.96924 20.7382L4.66924 22.3635C4.64921 22.4717 4.65324 22.583 4.68103 22.6894C4.70883 22.7959 4.75971 22.895 4.83007 22.9796C4.90043 23.0642 4.98854 23.1322 5.08816 23.179C5.18777 23.2257 5.29645 23.25 5.40649 23.25H11.4687C11.5757 23.2499 11.6815 23.2269 11.7788 23.1826C11.8762 23.1383 11.963 23.0736 12.0333 22.993C12.1036 22.9124 12.1559 22.8176 12.1866 22.7151C12.2173 22.6126 12.2257 22.5048 12.2112 22.3988L11.9532 20.5072L12.1535 20.307C12.3375 20.1242 12.4835 19.9067 12.5829 19.6671C12.6823 19.4276 12.7331 19.1706 12.7325 18.9113ZM11.2325 18.9113C11.232 19.0367 11.1822 19.1568 11.0937 19.2458L10.6295 19.7092C10.5478 19.791 10.4861 19.8905 10.4492 20.0001C10.4124 20.1096 10.4015 20.2262 10.4172 20.3407L10.6092 21.75H6.30799L6.50374 20.685C6.52327 20.58 6.52019 20.472 6.49471 20.3683C6.46924 20.2646 6.42195 20.1675 6.35599 20.0835C5.60374 19.128 4.58599 17.3918 4.78999 16.7032C4.93099 16.227 5.09224 16.0965 5.09749 16.0658C5.09974 16.0612 5.10349 16.0583 5.10499 16.0538C5.21628 16.084 5.33304 16.0883 5.44623 16.0662C5.55942 16.0441 5.66601 15.9962 5.75774 15.9263C5.84947 15.8564 5.92388 15.7663 5.97521 15.6631C6.02654 15.5598 6.05341 15.4461 6.05374 15.3307V11.2365C6.05859 11.1151 6.11022 11.0003 6.1978 10.9162C6.28539 10.832 6.40215 10.785 6.52361 10.785C6.64508 10.785 6.76184 10.832 6.84943 10.9162C6.93701 11.0003 6.98864 11.1151 6.99349 11.2365V12.324C6.99349 13.0822 7.41124 13.7715 8.08399 14.1225L10.604 15.4357C10.9917 15.6382 11.2325 16.035 11.2325 16.4708V18.9113ZM11.297 14.106L8.77774 12.7927C8.6918 12.7483 8.61974 12.681 8.56948 12.5984C8.51921 12.5157 8.49266 12.4208 8.49274 12.324V11.2365C8.49195 10.7144 8.28419 10.2139 7.91501 9.84473C7.54583 9.47555 7.04534 9.26779 6.52324 9.267C6.00114 9.26779 5.50065 9.47555 5.13147 9.84473C4.76229 10.2139 4.55453 10.7144 4.55374 11.2365V14.697C4.38499 14.7727 4.22951 14.875 4.09324 15H2.80249C2.38924 15 2.05249 14.664 2.05249 14.25V3C2.05249 2.58675 2.38924 2.25 2.80249 2.25H13.1975C13.6107 2.25 13.9475 2.58675 13.9475 3V14.25C13.9475 14.664 13.6107 15 13.1975 15H12.2855C12.0371 14.623 11.697 14.3154 11.297 14.106Z" fill="#49BB94"/>
<path d="M10.913 3.75H5.08698C4.88806 3.75 4.6973 3.82902 4.55665 3.96967C4.41599 4.11032 4.33698 4.30109 4.33698 4.5C4.33698 4.69891 4.41599 4.88968 4.55665 5.03033C4.6973 5.17098 4.88806 5.25 5.08698 5.25H10.913C11.1119 5.25 11.3027 5.17098 11.4433 5.03033C11.584 4.88968 11.663 4.69891 11.663 4.5C11.663 4.30109 11.584 4.11032 11.4433 3.96967C11.3027 3.82902 11.1119 3.75 10.913 3.75ZM10.913 6.5085H5.08698C4.88806 6.5085 4.6973 6.58752 4.55665 6.72817C4.41599 6.86882 4.33698 7.05959 4.33698 7.2585C4.33698 7.45741 4.41599 7.64818 4.55665 7.78883C4.6973 7.92948 4.88806 8.0085 5.08698 8.0085H10.913C11.1119 8.0085 11.3027 7.92948 11.4433 7.78883C11.584 7.64818 11.663 7.45741 11.663 7.2585C11.663 7.05959 11.584 6.86882 11.4433 6.72817C11.3027 6.58752 11.1119 6.5085 10.913 6.5085Z" fill="#49BB94"/>
</svg>
