<svg width="16" height="16" viewBox="0 0 16 16" fill="none" xmlns="http://www.w3.org/2000/svg">
<path d="M6.1064 7.74536C6.0864 7.74536 6.07307 7.74536 6.05307 7.74536C6.01973 7.7387 5.97307 7.7387 5.93307 7.74536C3.99973 7.68536 2.53973 6.16536 2.53973 4.29203C2.53973 2.38536 4.09307 0.832031 5.99973 0.832031C7.9064 0.832031 9.45973 2.38536 9.45973 4.29203C9.45307 6.16536 7.9864 7.68536 6.1264 7.74536C6.11973 7.74536 6.11307 7.74536 6.1064 7.74536ZM5.99973 1.83203C4.6464 1.83203 3.53973 2.9387 3.53973 4.29203C3.53973 5.62536 4.57973 6.6987 5.9064 6.74536C5.9464 6.7387 6.03307 6.7387 6.11973 6.74536C7.4264 6.68536 8.45307 5.61203 8.45973 4.29203C8.45973 2.9387 7.35307 1.83203 5.99973 1.83203Z" fill="#CBD5E1"/>
<path d="M11.0264 7.83464C11.0064 7.83464 10.9864 7.83464 10.9664 7.82797C10.6931 7.85464 10.4131 7.6613 10.3864 7.38797C10.3597 7.11464 10.5264 6.86797 10.7997 6.83464C10.8797 6.82797 10.9664 6.82797 11.0397 6.82797C12.0131 6.77464 12.7731 5.97464 12.7731 4.99464C12.7731 3.9813 11.9531 3.1613 10.9397 3.1613C10.6664 3.16797 10.4397 2.9413 10.4397 2.66797C10.4397 2.39464 10.6664 2.16797 10.9397 2.16797C12.4997 2.16797 13.7731 3.4413 13.7731 5.0013C13.7731 6.53464 12.5731 7.77464 11.0464 7.83464C11.0397 7.83464 11.0331 7.83464 11.0264 7.83464Z" fill="#CBD5E1"/>
<path d="M6.11307 15.0346C4.80641 15.0346 3.49307 14.7013 2.49974 14.0346C1.57307 13.4213 1.06641 12.5813 1.06641 11.668C1.06641 10.7546 1.57307 9.90797 2.49974 9.28797C4.49974 7.9613 7.73974 7.9613 9.72641 9.28797C10.6464 9.9013 11.1597 10.7413 11.1597 11.6546C11.1597 12.568 10.6531 13.4146 9.72641 14.0346C8.72641 14.7013 7.41974 15.0346 6.11307 15.0346ZM3.05307 10.128C2.41307 10.5546 2.06641 11.1013 2.06641 11.6746C2.06641 12.2413 2.41974 12.788 3.05307 13.208C4.71307 14.3213 7.51307 14.3213 9.17307 13.208C9.81307 12.7813 10.1597 12.2346 10.1597 11.6613C10.1597 11.0946 9.80641 10.548 9.17307 10.128C7.51307 9.0213 4.71307 9.0213 3.05307 10.128Z" fill="#CBD5E1"/>
<path d="M12.2264 13.8333C11.9931 13.8333 11.7864 13.6733 11.7397 13.4333C11.6864 13.16 11.8597 12.9 12.1264 12.84C12.5464 12.7533 12.9331 12.5867 13.2331 12.3533C13.6131 12.0667 13.8197 11.7067 13.8197 11.3267C13.8197 10.9467 13.6131 10.5867 13.2397 10.3067C12.9464 10.08 12.5797 9.92001 12.1464 9.82001C11.8797 9.76001 11.7064 9.49335 11.7664 9.22001C11.8264 8.95335 12.0931 8.78001 12.3664 8.84001C12.9397 8.96668 13.4397 9.19335 13.8464 9.50668C14.4664 9.97335 14.8197 10.6333 14.8197 11.3267C14.8197 12.02 14.4597 12.68 13.8397 13.1533C13.4264 13.4733 12.9064 13.7067 12.3331 13.82C12.2931 13.8333 12.2597 13.8333 12.2264 13.8333Z" fill="#CBD5E1"/>
</svg>
