<svg width="16" height="16" viewBox="0 0 16 16" fill="none" xmlns="http://www.w3.org/2000/svg">
<g clip-path="url(#clip0_544_9085)">
<path d="M8 0C3.57841 0 0 3.578 0 8C0 12.4215 3.578 16 8 16C12.4216 16 16 12.422 16 8C16 3.57841 12.422 0 8 0ZM8 14.8837C4.20431 14.8837 1.11628 11.7957 1.11628 8C1.11628 4.20428 4.20431 1.11628 8 1.11628C11.7957 1.11628 14.8837 4.20428 14.8837 8C14.8837 11.7957 11.7957 14.8837 8 14.8837Z" fill="#CBD5E1"/>
<path d="M7.76328 10.1236C7.321 10.1236 6.96297 10.4922 6.96297 10.9344C6.96297 11.3662 7.31047 11.7453 7.76328 11.7453C8.21609 11.7453 8.57409 11.3662 8.57409 10.9344C8.57409 10.4922 8.20553 10.1236 7.76328 10.1236ZM7.90015 3.98438C6.47853 3.98438 5.82565 4.82684 5.82565 5.39547C5.82565 5.80616 6.17315 5.99572 6.45747 5.99572C7.02612 5.99572 6.79447 5.18484 7.86856 5.18484C8.39506 5.18484 8.81631 5.41653 8.81631 5.90094C8.81631 6.46956 8.22659 6.796 7.87909 7.09084C7.57368 7.35406 7.17356 7.78584 7.17356 8.69147C7.17356 9.23903 7.321 9.397 7.75272 9.397C8.26868 9.397 8.374 9.16534 8.374 8.96522C8.374 8.41766 8.38453 8.10175 8.96372 7.64894C9.24803 7.42781 10.1431 6.71172 10.1431 5.72187C10.1431 4.73203 9.24803 3.98438 7.90015 3.98438Z" fill="#CBD5E1"/>
</g>
<defs>
<clipPath id="clip0_544_9085">
<rect width="16" height="16" fill="white"/>
</clipPath>
</defs>
</svg>
