<svg width="16" height="16" viewBox="0 0 16 16" fill="none" xmlns="http://www.w3.org/2000/svg">
<path d="M7.66493 14.4987C3.89923 14.4987 0.833344 11.432 0.833344 7.66536C0.833344 3.8987 3.89923 0.832031 7.66493 0.832031C11.4306 0.832031 14.4965 3.8987 14.4965 7.66536C14.4965 11.432 11.4306 14.4987 7.66493 14.4987ZM7.66493 1.83203C4.44575 1.83203 1.83309 4.45203 1.83309 7.66536C1.83309 10.8787 4.44575 13.4987 7.66493 13.4987C10.8841 13.4987 13.4968 10.8787 13.4968 7.66536C13.4968 4.45203 10.8841 1.83203 7.66493 1.83203Z" fill="#CBD5E1"/>
<path d="M14.6631 15.1637C14.5365 15.1637 14.4099 15.117 14.3099 15.017L12.9769 13.6837C12.7836 13.4904 12.7836 13.1704 12.9769 12.977C13.1702 12.7837 13.4901 12.7837 13.6834 12.977L15.0164 14.3104C15.2097 14.5037 15.2097 14.8237 15.0164 15.017C14.9164 15.117 14.7898 15.1637 14.6631 15.1637Z" fill="#CBD5E1"/>
</svg>
