<svg width="16" height="16" viewBox="0 0 16 16" fill="none" xmlns="http://www.w3.org/2000/svg">
<path d="M13.4 6.1463C12.1933 6.1463 11.7 5.29297 12.3 4.2463C12.6467 3.63963 12.44 2.8663 11.8333 2.51963L10.68 1.85963C10.1533 1.5463 9.47333 1.73297 9.16 2.25963L9.08666 2.3863C8.48666 3.43297 7.5 3.43297 6.89333 2.3863L6.81999 2.25963C6.51999 1.73297 5.83999 1.5463 5.31333 1.85963L4.15999 2.51963C3.55333 2.8663 3.34666 3.6463 3.69333 4.25297C4.29999 5.29297 3.80666 6.1463 2.6 6.1463C1.90666 6.1463 1.33333 6.71297 1.33333 7.41297V8.5863C1.33333 9.27963 1.9 9.85297 2.6 9.85297C3.80666 9.85297 4.29999 10.7063 3.69333 11.753C3.34666 12.3596 3.55333 13.133 4.15999 13.4796L5.31333 14.1396C5.83999 14.453 6.52 14.2663 6.83333 13.7396L6.90666 13.613C7.50666 12.5663 8.49333 12.5663 9.09999 13.613L9.17333 13.7396C9.48666 14.2663 10.1667 14.453 10.6933 14.1396L11.8467 13.4796C12.4533 13.133 12.66 12.353 12.3133 11.753C11.7067 10.7063 12.2 9.85297 13.4067 9.85297C14.1 9.85297 14.6733 9.2863 14.6733 8.5863V7.41297C14.6667 6.71963 14.1 6.1463 13.4 6.1463ZM8 10.1663C6.80666 10.1663 5.83333 9.19297 5.83333 7.99963C5.83333 6.8063 6.80666 5.83297 8 5.83297C9.19333 5.83297 10.1667 6.8063 10.1667 7.99963C10.1667 9.19297 9.19333 10.1663 8 10.1663Z" fill="white"/>
</svg>
