<svg width="20" height="20" viewBox="0 0 20 20" fill="none" xmlns="http://www.w3.org/2000/svg">
<path d="M10.0001 1.66797C5.40841 1.66797 1.66675 5.40964 1.66675 10.0013C1.66675 14.593 5.40841 18.3346 10.0001 18.3346C14.5917 18.3346 18.3334 14.593 18.3334 10.0013C18.3334 5.40964 14.5917 1.66797 10.0001 1.66797ZM13.9834 8.08464L9.25841 12.8096C9.14175 12.9263 8.98342 12.993 8.81675 12.993C8.65008 12.993 8.49175 12.9263 8.37508 12.8096L6.01675 10.4513C5.77508 10.2096 5.77508 9.80964 6.01675 9.56797C6.25841 9.3263 6.65841 9.3263 6.90008 9.56797L8.81675 11.4846L13.1001 7.2013C13.3417 6.95964 13.7417 6.95964 13.9834 7.2013C14.2251 7.44297 14.2251 7.83464 13.9834 8.08464Z" fill="#49BB94"/>
</svg>
