<svg width="16" height="16" viewBox="0 0 16 16" fill="none" xmlns="http://www.w3.org/2000/svg">
<path d="M8.58666 13.9071H4.53999C2.17333 13.9071 1.33333 12.2471 1.33333 10.7004V5.30042C1.33333 2.99375 2.23333 2.09375 4.53999 2.09375H8.58666C10.8933 2.09375 11.7933 2.99375 11.7933 5.30042V10.7004C11.7933 13.0071 10.8933 13.9071 8.58666 13.9071ZM4.53999 3.10708C2.79999 3.10708 2.34666 3.56042 2.34666 5.30042V10.7004C2.34666 11.5204 2.63333 12.8938 4.53999 12.8938H8.58666C10.3267 12.8938 10.78 12.4404 10.78 10.7004V5.30042C10.78 3.56042 10.3267 3.10708 8.58666 3.10708H4.53999Z" fill="#CBD5E1"/>
<path d="M13.8533 12.0737C13.5666 12.0737 13.2 11.9803 12.78 11.687L11 10.4403C10.8666 10.347 10.7866 10.1937 10.7866 10.027V5.97366C10.7866 5.80699 10.8666 5.65366 11 5.56032L12.78 4.31366C13.5733 3.76032 14.1533 3.92032 14.4266 4.06032C14.7 4.20699 15.1666 4.58699 15.1666 5.55366V10.4403C15.1666 11.407 14.7 11.7937 14.4266 11.9337C14.3 12.007 14.1 12.0737 13.8533 12.0737ZM11.7933 9.76032L13.36 10.8537C13.66 11.0603 13.8733 11.0803 13.96 11.0337C14.0533 10.987 14.1533 10.8003 14.1533 10.4403V5.56032C14.1533 5.19366 14.0466 5.01366 13.96 4.96699C13.8733 4.92032 13.66 4.94032 13.36 5.14699L11.7933 6.24032V9.76032Z" fill="#CBD5E1"/>
<path d="M7.66667 7.83203C6.84001 7.83203 6.16667 7.1587 6.16667 6.33203C6.16667 5.50536 6.84001 4.83203 7.66667 4.83203C8.49334 4.83203 9.16667 5.50536 9.16667 6.33203C9.16667 7.1587 8.49334 7.83203 7.66667 7.83203ZM7.66667 5.83203C7.39334 5.83203 7.16667 6.0587 7.16667 6.33203C7.16667 6.60536 7.39334 6.83203 7.66667 6.83203C7.94001 6.83203 8.16667 6.60536 8.16667 6.33203C8.16667 6.0587 7.94001 5.83203 7.66667 5.83203Z" fill="#CBD5E1"/>
</svg>
